<svg width="168" height="168" viewBox="0 0 168 168" fill="none" xmlns="http://www.w3.org/2000/svg">
<g filter="url(#filter0_d_17_6088)">
<rect x="16" y="14" width="136" height="136" rx="6" fill="white"/>
<path d="M71.2364 108.08V112H75.5884V112.976H71.2364V118H69.9884V107.12H76.2284V108.08H71.2364ZM79.4357 106.672C79.2224 106.672 79.0357 106.597 78.8757 106.448C78.7157 106.288 78.6357 106.101 78.6357 105.888C78.6357 105.664 78.7157 105.472 78.8757 105.312C79.0357 105.152 79.2224 105.072 79.4357 105.072C79.6597 105.072 79.8464 105.152 79.9957 105.312C80.1557 105.472 80.2357 105.664 80.2357 105.888C80.2357 106.101 80.1557 106.288 79.9957 106.448C79.8464 106.597 79.6597 106.672 79.4357 106.672ZM78.8277 109.552H80.0277V118H78.8277V109.552ZM85.9553 118.304C85.3046 118.304 84.7446 118.235 84.2753 118.096C83.806 117.957 83.3686 117.744 82.9633 117.456L83.3793 116.56C84.0406 117.083 84.8993 117.344 85.9553 117.344C86.5313 117.344 86.9953 117.205 87.3473 116.928C87.71 116.651 87.8913 116.261 87.8913 115.76C87.8913 115.472 87.8006 115.232 87.6193 115.04C87.4486 114.848 87.2353 114.688 86.9793 114.56C86.7233 114.432 86.366 114.283 85.9073 114.112C85.3526 113.909 84.8993 113.723 84.5473 113.552C84.206 113.371 83.9126 113.125 83.6673 112.816C83.422 112.496 83.2993 112.091 83.2993 111.6C83.2993 110.843 83.5606 110.261 84.0833 109.856C84.6166 109.451 85.2993 109.248 86.1313 109.248C87.1553 109.248 88.0513 109.525 88.8193 110.08L88.4193 110.96C87.7366 110.448 86.9793 110.192 86.1473 110.192C85.646 110.192 85.2406 110.304 84.9313 110.528C84.622 110.752 84.4673 111.088 84.4673 111.536C84.4673 111.824 84.5526 112.069 84.7233 112.272C84.9046 112.464 85.1233 112.624 85.3793 112.752C85.6353 112.869 85.9926 113.008 86.4513 113.168C87.0273 113.381 87.4806 113.579 87.8113 113.76C88.1526 113.931 88.446 114.176 88.6913 114.496C88.9366 114.816 89.0593 115.227 89.0593 115.728C89.0593 116.517 88.7713 117.147 88.1953 117.616C87.63 118.075 86.8833 118.304 85.9553 118.304ZM96.0159 109.248C96.9226 109.248 97.5413 109.483 97.8719 109.952C98.2133 110.421 98.3839 111.099 98.3839 111.984V118H97.1839V112.08C97.1839 111.429 97.0719 110.96 96.8479 110.672C96.6346 110.373 96.2666 110.224 95.7439 110.224C95.3386 110.224 94.9226 110.325 94.4959 110.528C94.0693 110.72 93.5946 111.019 93.0719 111.424V118H91.8719V105.2H93.0719V110.416C94.0853 109.637 95.0666 109.248 96.0159 109.248Z" fill="#313030"/>
<path d="M78.7246 56.167C75.5724 56.167 72.5824 56.7559 70.0484 57.8551C73.4897 62.1903 73.4827 68.3274 70.0315 72.6547C72.5685 73.7558 75.5649 74.3429 78.7246 74.3429C84.8779 74.3429 90.0136 70.2669 93.3937 65.2549C90.0099 60.2373 84.8817 56.167 78.7246 56.167Z" fill="#FFE145"/>
<path d="M107.25 57.5175C103.072 57.5175 99.2779 60.5974 96.7578 63.8847C93.8832 59.3379 89.449 55.1944 84.1838 53.4744V46.0934L71.6952 53.5185C65.8213 55.1194 60 59.2582 60 65.2549C60 72.6744 68.9575 77.9068 78.7245 77.9068C86.2808 77.9068 92.7699 72.9361 96.7578 66.6261C99.2806 69.9087 103.071 72.9934 107.25 72.9934H108V57.5184L107.25 57.5175ZM82.6823 48.7316V53.0608C80.7944 52.6219 78.7865 52.4586 75.9372 52.7419L82.6823 48.7316ZM61.5006 65.2549C61.5006 61.4397 64.4342 58.4451 67.8124 56.6425C73.2333 61.0974 73.2333 69.4125 67.7917 73.8561C64.407 72.0441 61.5006 69.0504 61.5006 65.2549ZM78.7245 76.4061C75.3201 76.4061 72.0769 75.7721 69.268 74.5651C74.7377 69.5812 74.7452 60.9304 69.2887 55.9353C72.092 54.7348 75.3285 54.1036 78.7245 54.1036C86.0596 54.1036 92.3002 59.2806 95.8208 65.2313L95.8058 65.2548L95.8208 65.2782C92.2955 71.247 86.054 76.4061 78.7245 76.4061ZM106.499 71.4532C102.079 70.9937 98.596 66.6204 97.6094 65.2549C98.5942 63.8883 102.07 59.516 106.499 59.0574V71.4532Z" fill="#B79C10"/>
</g>
<defs>
<filter id="filter0_d_17_6088" x="0" y="0" width="168" height="168" filterUnits="userSpaceOnUse" color-interpolation-filters="sRGB">
<feFlood flood-opacity="0" result="BackgroundImageFix"/>
<feColorMatrix in="SourceAlpha" type="matrix" values="0 0 0 0 0 0 0 0 0 0 0 0 0 0 0 0 0 0 127 0" result="hardAlpha"/>
<feOffset dy="2"/>
<feGaussianBlur stdDeviation="8"/>
<feColorMatrix type="matrix" values="0 0 0 0 0.235764 0 0 0 0 0.244708 0 0 0 0 0.291667 0 0 0 0.08 0"/>
<feBlend mode="multiply" in2="BackgroundImageFix" result="effect1_dropShadow_17_6088"/>
<feBlend mode="normal" in="SourceGraphic" in2="effect1_dropShadow_17_6088" result="shape"/>
</filter>
</defs>
</svg>
