<svg width="168" height="168" viewBox="0 0 168 168" fill="none" xmlns="http://www.w3.org/2000/svg">
<g filter="url(#filter0_d_17_6126)">
<rect x="16" y="14" width="136" height="136" rx="6" fill="white"/>
<path d="M67.6814 107.12C68.9188 107.12 69.8574 107.403 70.4974 107.968C71.1481 108.533 71.4734 109.291 71.4734 110.24C71.4734 111.221 71.1534 111.995 70.5134 112.56C69.8734 113.115 68.9294 113.392 67.6814 113.392H65.3614V118H64.1134V107.12H67.6814ZM67.6814 112.432C68.5134 112.432 69.1428 112.251 69.5694 111.888C70.0068 111.525 70.2254 110.981 70.2254 110.256C70.2254 109.584 70.0068 109.056 69.5694 108.672C69.1321 108.277 68.5028 108.08 67.6814 108.08H65.3614V112.432H67.6814ZM80.8449 118C80.4716 118.139 80.1143 118.213 79.7729 118.224C78.8769 118.224 78.3969 117.824 78.3329 117.024C77.2876 117.835 76.3489 118.24 75.5169 118.24C74.8556 118.24 74.3116 118.053 73.8849 117.68C73.4689 117.296 73.2609 116.811 73.2609 116.224C73.2609 115.701 73.4049 115.264 73.6929 114.912C73.9916 114.56 74.4023 114.267 74.9249 114.032C75.4476 113.797 76.1463 113.557 77.0209 113.312L78.3169 112.944V112.224C78.3169 110.891 77.8263 110.224 76.8449 110.224C76.3009 110.224 75.8049 110.336 75.3569 110.56C74.9196 110.784 74.4236 111.211 73.8689 111.84L73.2769 111.12C74.3863 109.872 75.6289 109.248 77.0049 109.248C77.9116 109.248 78.5569 109.483 78.9409 109.952C79.3356 110.411 79.5329 111.184 79.5329 112.272V116.624C79.5329 116.859 79.5703 117.029 79.6449 117.136C79.7303 117.232 79.8636 117.28 80.0449 117.28C80.2369 117.28 80.4663 117.221 80.7329 117.104L80.8449 118ZM74.4609 116.16C74.4609 116.555 74.5729 116.843 74.7969 117.024C75.0209 117.195 75.3196 117.28 75.6929 117.28C76.0876 117.28 76.4823 117.184 76.8769 116.992C77.2823 116.789 77.7623 116.485 78.3169 116.08V113.792L77.3089 114.096C76.2529 114.405 75.5116 114.709 75.0849 115.008C74.6689 115.307 74.4609 115.691 74.4609 116.16ZM85.4397 118.304C84.789 118.304 84.229 118.235 83.7597 118.096C83.2904 117.957 82.853 117.744 82.4477 117.456L82.8637 116.56C83.525 117.083 84.3837 117.344 85.4397 117.344C86.0157 117.344 86.4797 117.205 86.8317 116.928C87.1944 116.651 87.3757 116.261 87.3757 115.76C87.3757 115.472 87.285 115.232 87.1037 115.04C86.933 114.848 86.7197 114.688 86.4637 114.56C86.2077 114.432 85.8504 114.283 85.3917 114.112C84.837 113.909 84.3837 113.723 84.0317 113.552C83.6904 113.371 83.397 113.125 83.1517 112.816C82.9064 112.496 82.7837 112.091 82.7837 111.6C82.7837 110.843 83.045 110.261 83.5677 109.856C84.101 109.451 84.7837 109.248 85.6157 109.248C86.6397 109.248 87.5357 109.525 88.3037 110.08L87.9037 110.96C87.221 110.448 86.4637 110.192 85.6317 110.192C85.1304 110.192 84.725 110.304 84.4157 110.528C84.1064 110.752 83.9517 111.088 83.9517 111.536C83.9517 111.824 84.037 112.069 84.2077 112.272C84.389 112.464 84.6077 112.624 84.8637 112.752C85.1197 112.869 85.477 113.008 85.9357 113.168C86.5117 113.381 86.965 113.579 87.2957 113.76C87.637 113.931 87.9304 114.176 88.1757 114.496C88.421 114.816 88.5437 115.227 88.5437 115.728C88.5437 116.517 88.2557 117.147 87.6797 117.616C87.1144 118.075 86.3677 118.304 85.4397 118.304ZM95.9323 117.728C95.3776 118.059 94.8176 118.224 94.2523 118.224C93.3776 118.224 92.727 117.979 92.3003 117.488C91.8843 116.987 91.6763 116.272 91.6763 115.344V110.464H90.3163V109.952L91.7723 109.584L92.1403 107.584H92.8763V109.552H95.4363V110.464H92.8763V115.2C92.8763 115.915 92.9883 116.437 93.2123 116.768C93.447 117.088 93.8256 117.248 94.3483 117.248C94.5936 117.248 94.807 117.216 94.9883 117.152C95.1803 117.088 95.4256 116.987 95.7243 116.848L95.9323 117.728ZM105.392 118C105.018 118.139 104.661 118.213 104.32 118.224C103.424 118.224 102.944 117.824 102.88 117.024C101.834 117.835 100.896 118.24 100.064 118.24C99.4025 118.24 98.8585 118.053 98.4318 117.68C98.0158 117.296 97.8078 116.811 97.8078 116.224C97.8078 115.701 97.9518 115.264 98.2398 114.912C98.5385 114.56 98.9491 114.267 99.4718 114.032C99.9945 113.797 100.693 113.557 101.568 113.312L102.864 112.944V112.224C102.864 110.891 102.373 110.224 101.392 110.224C100.848 110.224 100.352 110.336 99.9038 110.56C99.4665 110.784 98.9705 111.211 98.4158 111.84L97.8238 111.12C98.9331 109.872 100.176 109.248 101.552 109.248C102.458 109.248 103.104 109.483 103.488 109.952C103.882 110.411 104.08 111.184 104.08 112.272V116.624C104.08 116.859 104.117 117.029 104.192 117.136C104.277 117.232 104.41 117.28 104.592 117.28C104.784 117.28 105.013 117.221 105.28 117.104L105.392 118ZM99.0078 116.16C99.0078 116.555 99.1198 116.843 99.3438 117.024C99.5678 117.195 99.8665 117.28 100.24 117.28C100.634 117.28 101.029 117.184 101.424 116.992C101.829 116.789 102.309 116.485 102.864 116.08V113.792L101.856 114.096C100.8 114.405 100.058 114.709 99.6318 115.008C99.2158 115.307 99.0078 115.691 99.0078 116.16Z" fill="#313030"/>
<g clip-path="url(#clip0_17_6126)">
<path d="M104.956 82.2365C99.8777 81.149 95.9178 78.7313 92.9412 75.1819L89.4819 71.057C86.945 68.0281 82.4329 67.6294 79.404 70.1664C79.0815 70.4365 78.7835 70.7345 78.5134 71.057L75.0541 75.1819C72.0814 78.7274 68.1233 81.148 63.0393 82.2365L60.9375 79.4877C61.1906 78.9899 61.6659 78.1818 61.6659 76.8853C61.6669 75.3235 61.0312 74.2247 60 73.2498V70.5986C61.0406 69.6171 61.6669 68.5165 61.6669 66.9622C61.6669 65.4078 61.0312 64.3016 60 63.3257V60.6744C61.0406 59.6928 61.6669 58.5922 61.6669 57.0379C61.6669 55.4836 61.0312 54.3774 60 53.4024V50.7503C61.0406 49.7687 61.6669 48.6671 61.6669 47.1138C61.6669 45.8425 61.2122 45.0513 60.9394 44.5114L63.0431 41.7637C68.1224 42.8521 72.0814 45.2689 75.0578 48.8183L78.5171 52.9432C81.0541 55.972 85.5662 56.3708 88.5951 53.8338C88.9176 53.5637 89.2156 53.2657 89.4857 52.9432L92.945 48.8183C95.9177 45.2727 99.8758 42.8521 104.96 41.7637L107.062 44.5123C106.812 45.0036 106.333 45.8173 106.333 47.1147C106.333 48.6766 106.967 49.7753 108 50.7512V53.4024C106.959 54.3839 106.333 55.4845 106.333 57.0388C106.333 58.5931 106.968 59.6984 107.999 60.6744V63.3255C106.959 64.3071 106.332 65.4077 106.332 66.962C106.332 68.5164 106.968 69.6225 107.999 70.5985V73.2496C106.959 74.2312 106.332 75.3318 106.332 76.8861C106.332 78.1545 106.784 78.9439 107.061 79.4885L104.956 82.2365ZM83.9995 66.9977C86.5594 66.9949 88.9886 68.128 90.6313 70.0914L94.0906 74.2163C96.7445 77.3699 100.337 79.5934 104.343 80.5621L105.306 79.304C104.991 78.5351 104.829 77.7123 104.829 76.8816C104.824 75.2989 105.421 73.7735 106.499 72.6151V71.2314C104.276 68.8184 104.276 65.1039 106.499 62.6909V61.3081C104.276 58.8952 104.276 55.1806 106.499 52.7677V51.3849C105.421 50.2251 104.825 48.6983 104.832 47.1146C104.832 46.2838 104.994 45.461 105.309 44.6922L104.343 43.4379C100.335 44.4065 96.7421 46.6305 94.0878 49.7856L90.6285 53.9105C87.5577 57.5728 82.0994 58.0524 78.4371 54.9816C78.0494 54.6565 77.691 54.2981 77.366 53.9105L73.9067 49.7856C71.2536 46.6315 67.6621 44.4075 63.6562 43.4379L62.6906 44.6922C63.0054 45.4611 63.1672 46.2839 63.1669 47.1147C63.1744 48.6984 62.5783 50.2252 61.5 51.385V52.7687C62.5783 53.9285 63.1744 55.4553 63.1669 57.0389C63.1742 58.6222 62.5781 60.1487 61.5 61.3082V62.692C62.5783 63.8517 63.1744 65.3785 63.1669 66.9622C63.1742 68.5454 62.5781 70.072 61.5 71.2315V72.6152C62.5783 73.775 63.1744 75.3018 63.1669 76.8854C63.1672 77.7162 63.0055 78.5391 62.6906 79.3078L63.6562 80.5622C67.6638 79.5935 71.2569 77.3695 73.9114 74.2145L77.3707 70.0896C79.013 68.1277 81.441 66.9952 83.9995 66.9977Z" fill="#B79C10"/>
<path d="M102.837 77.9512C100.053 76.9089 97.5842 75.1652 95.6711 72.8888L92.2109 68.7639C88.4083 64.2287 81.6491 63.6347 77.1138 67.4372C76.6337 67.8397 76.1898 68.2837 75.7871 68.7639L72.3278 72.8888C70.4148 75.1652 67.9464 76.9088 65.1617 77.9512C65.4367 75.8165 64.8795 73.658 63.6054 71.9232C64.6632 70.4853 65.2323 68.7462 65.2292 66.9611C65.2321 65.1763 64.663 63.4376 63.6054 61.9999C64.6632 60.562 65.2323 58.8229 65.2292 57.0379C65.2323 55.2528 64.6632 53.5137 63.6054 52.0758C64.8795 50.341 65.4367 48.1824 65.1617 46.0477C67.9463 47.0901 70.4148 48.8339 72.3278 51.1101L75.7871 55.235C79.5897 59.7703 86.3489 60.3643 90.8841 56.5618C91.3643 56.1592 91.8082 55.7152 92.2109 55.235L95.6702 51.1101C97.5832 48.8339 100.052 47.0901 102.836 46.0477C102.561 48.1824 103.118 50.341 104.393 52.0758C102.228 55.0293 102.228 59.0455 104.393 61.999C102.228 64.9525 102.228 68.9688 104.393 71.9223C103.119 73.6574 102.562 75.8164 102.837 77.9512Z" fill="#FFE145"/>
<path d="M87.441 61.9953C88.5364 61.4878 89.506 60.7444 90.2806 59.8185L93.542 55.9289L92.3955 54.9689L89.134 58.8585C86.7401 61.6944 82.5004 62.0529 79.6645 59.659C79.3756 59.4152 79.1078 59.1473 78.8639 58.8585L75.6034 54.9689L74.454 55.9326L77.7183 59.8185C78.494 60.7448 79.465 61.4882 80.5616 61.9953C79.4649 62.5024 78.4939 63.2458 77.7183 64.1722L74.4568 68.0618L75.6062 69.0256L78.8676 65.136C81.2615 62.3 85.5012 61.9415 88.3371 64.3353C88.6261 64.5792 88.8938 64.847 89.1378 65.136L92.3992 69.0256L93.5486 68.0618L90.2806 64.1722C89.506 63.2462 88.5364 62.5029 87.441 61.9953Z" fill="#B79C10"/>
</g>
</g>
<defs>
<filter id="filter0_d_17_6126" x="0" y="0" width="168" height="168" filterUnits="userSpaceOnUse" color-interpolation-filters="sRGB">
<feFlood flood-opacity="0" result="BackgroundImageFix"/>
<feColorMatrix in="SourceAlpha" type="matrix" values="0 0 0 0 0 0 0 0 0 0 0 0 0 0 0 0 0 0 127 0" result="hardAlpha"/>
<feOffset dy="2"/>
<feGaussianBlur stdDeviation="8"/>
<feColorMatrix type="matrix" values="0 0 0 0 0.235764 0 0 0 0 0.244708 0 0 0 0 0.291667 0 0 0 0.08 0"/>
<feBlend mode="multiply" in2="BackgroundImageFix" result="effect1_dropShadow_17_6126"/>
<feBlend mode="normal" in="SourceGraphic" in2="effect1_dropShadow_17_6126" result="shape"/>
</filter>
<clipPath id="clip0_17_6126">
<rect width="48" height="48" fill="white" transform="translate(60 38)"/>
</clipPath>
</defs>
</svg>
