<svg width="168" height="168" viewBox="0 0 168 168" fill="none" xmlns="http://www.w3.org/2000/svg">
<g filter="url(#filter0_d_17_6125)">
<rect x="16" y="14" width="136" height="136" rx="6" fill="white"/>
<path d="M63.3119 118.256C62.4799 118.256 61.7759 118.171 61.1999 118C60.6239 117.819 60.0799 117.547 59.5679 117.184L60.0799 116.256C60.9225 116.939 61.9999 117.28 63.3119 117.28C64.0692 117.28 64.6932 117.093 65.1839 116.72C65.6745 116.336 65.9199 115.813 65.9199 115.152C65.9199 114.757 65.8025 114.427 65.5679 114.16C65.3332 113.893 65.0399 113.68 64.6879 113.52C64.3465 113.36 63.8772 113.173 63.2799 112.96C62.5759 112.715 62.0052 112.485 61.5679 112.272C61.1305 112.048 60.7572 111.744 60.4479 111.36C60.1492 110.965 59.9999 110.464 59.9999 109.856C59.9999 108.907 60.3252 108.181 60.9759 107.68C61.6372 107.168 62.4799 106.912 63.5039 106.912C64.1759 106.912 64.7839 107.003 65.3279 107.184C65.8719 107.355 66.3839 107.616 66.8639 107.968L66.3679 108.88C65.5252 108.219 64.5759 107.888 63.5199 107.888C62.8585 107.888 62.3092 108.053 61.8719 108.384C61.4452 108.704 61.2319 109.179 61.2319 109.808C61.2319 110.192 61.3439 110.517 61.5679 110.784C61.8025 111.04 62.0905 111.248 62.4319 111.408C62.7732 111.568 63.2425 111.755 63.8399 111.968C64.5545 112.224 65.1305 112.464 65.5679 112.688C66.0052 112.901 66.3785 113.205 66.6879 113.6C66.9972 113.995 67.1519 114.501 67.1519 115.12C67.1519 115.749 66.9865 116.304 66.6559 116.784C66.3359 117.253 65.8825 117.616 65.2959 117.872C64.7199 118.128 64.0585 118.256 63.3119 118.256ZM76.9465 118C76.5732 118.139 76.2158 118.213 75.8745 118.224C74.9785 118.224 74.4985 117.824 74.4345 117.024C73.3892 117.835 72.4505 118.24 71.6185 118.24C70.9572 118.24 70.4132 118.053 69.9865 117.68C69.5705 117.296 69.3625 116.811 69.3625 116.224C69.3625 115.701 69.5065 115.264 69.7945 114.912C70.0932 114.56 70.5038 114.267 71.0265 114.032C71.5492 113.797 72.2478 113.557 73.1225 113.312L74.4185 112.944V112.224C74.4185 110.891 73.9278 110.224 72.9465 110.224C72.4025 110.224 71.9065 110.336 71.4585 110.56C71.0212 110.784 70.5252 111.211 69.9705 111.84L69.3785 111.12C70.4878 109.872 71.7305 109.248 73.1065 109.248C74.0132 109.248 74.6585 109.483 75.0425 109.952C75.4372 110.411 75.6345 111.184 75.6345 112.272V116.624C75.6345 116.859 75.6718 117.029 75.7465 117.136C75.8318 117.232 75.9652 117.28 76.1465 117.28C76.3385 117.28 76.5678 117.221 76.8345 117.104L76.9465 118ZM70.5625 116.16C70.5625 116.555 70.6745 116.843 70.8985 117.024C71.1225 117.195 71.4212 117.28 71.7945 117.28C72.1892 117.28 72.5838 117.184 72.9785 116.992C73.3838 116.789 73.8638 116.485 74.4185 116.08V113.792L73.4105 114.096C72.3545 114.405 71.6132 114.709 71.1865 115.008C70.7705 115.307 70.5625 115.691 70.5625 116.16ZM79.3173 105.2H80.5173V118H79.3173V105.2ZM90.9465 118C90.5732 118.139 90.2158 118.213 89.8745 118.224C88.9785 118.224 88.4985 117.824 88.4345 117.024C87.3892 117.835 86.4505 118.24 85.6185 118.24C84.9572 118.24 84.4132 118.053 83.9865 117.68C83.5705 117.296 83.3625 116.811 83.3625 116.224C83.3625 115.701 83.5065 115.264 83.7945 114.912C84.0932 114.56 84.5038 114.267 85.0265 114.032C85.5492 113.797 86.2478 113.557 87.1225 113.312L88.4185 112.944V112.224C88.4185 110.891 87.9278 110.224 86.9465 110.224C86.4025 110.224 85.9065 110.336 85.4585 110.56C85.0212 110.784 84.5252 111.211 83.9705 111.84L83.3785 111.12C84.4878 109.872 85.7305 109.248 87.1065 109.248C88.0132 109.248 88.6585 109.483 89.0425 109.952C89.4372 110.411 89.6345 111.184 89.6345 112.272V116.624C89.6345 116.859 89.6718 117.029 89.7465 117.136C89.8318 117.232 89.9652 117.28 90.1465 117.28C90.3385 117.28 90.5678 117.221 90.8345 117.104L90.9465 118ZM84.5625 116.16C84.5625 116.555 84.6745 116.843 84.8985 117.024C85.1225 117.195 85.4212 117.28 85.7945 117.28C86.1892 117.28 86.5838 117.184 86.9785 116.992C87.3838 116.789 87.8638 116.485 88.4185 116.08V113.792L87.4105 114.096C86.3545 114.405 85.6132 114.709 85.1865 115.008C84.7705 115.307 84.5625 115.691 84.5625 116.16ZM99.6373 105.2V118H98.6933L98.5493 117.28C97.7919 117.963 96.9333 118.304 95.9733 118.304C95.3013 118.304 94.7039 118.133 94.1813 117.792C93.6693 117.451 93.2693 116.955 92.9813 116.304C92.6933 115.643 92.5493 114.859 92.5493 113.952C92.5493 112.405 92.9333 111.237 93.7013 110.448C94.4693 109.648 95.4933 109.248 96.7733 109.248C97.3813 109.248 97.9359 109.349 98.4373 109.552V105.2H99.6373ZM93.7812 113.952C93.7812 115.125 93.9999 115.984 94.4373 116.528C94.8746 117.061 95.4079 117.328 96.0373 117.328C96.4959 117.328 96.9013 117.259 97.2533 117.12C97.6159 116.971 98.0106 116.725 98.4373 116.384V110.496C97.9999 110.293 97.4613 110.192 96.8213 110.192C95.7973 110.192 95.0346 110.533 94.5333 111.216C94.0319 111.888 93.7812 112.8 93.7812 113.952ZM105.448 118.304C104.797 118.304 104.237 118.235 103.768 118.096C103.298 117.957 102.861 117.744 102.456 117.456L102.872 116.56C103.533 117.083 104.392 117.344 105.448 117.344C106.024 117.344 106.488 117.205 106.84 116.928C107.202 116.651 107.384 116.261 107.384 115.76C107.384 115.472 107.293 115.232 107.112 115.04C106.941 114.848 106.728 114.688 106.472 114.56C106.216 114.432 105.858 114.283 105.4 114.112C104.845 113.909 104.392 113.723 104.039 113.552C103.698 113.371 103.405 113.125 103.16 112.816C102.914 112.496 102.792 112.091 102.792 111.6C102.792 110.843 103.053 110.261 103.576 109.856C104.109 109.451 104.792 109.248 105.624 109.248C106.648 109.248 107.544 109.525 108.312 110.08L107.912 110.96C107.229 110.448 106.472 110.192 105.64 110.192C105.138 110.192 104.733 110.304 104.424 110.528C104.114 110.752 103.96 111.088 103.96 111.536C103.96 111.824 104.045 112.069 104.216 112.272C104.397 112.464 104.616 112.624 104.872 112.752C105.128 112.869 105.485 113.008 105.944 113.168C106.52 113.381 106.973 113.579 107.304 113.76C107.645 113.931 107.938 114.176 108.184 114.496C108.429 114.816 108.552 115.227 108.552 115.728C108.552 116.517 108.264 117.147 107.688 117.616C107.122 118.075 106.376 118.304 105.448 118.304Z" fill="#313030"/>
<path d="M84 49.8959C82.9059 48.0012 81.8906 45.6697 81.8906 43.6719C81.8906 42.5069 82.8351 41.5625 84 41.5625C85.1649 41.5625 86.1094 42.5069 86.1094 43.6719C86.1094 45.6594 85.0847 48.0012 84 49.8959Z" fill="#FFE145"/>
<path d="M72.7922 62.99C71.6273 62.99 70.6829 62.0456 70.6829 60.8806C70.6829 59.7157 71.6273 58.7712 72.7922 58.7712C74.7797 58.7712 77.1216 59.7969 79.0163 60.8844C77.1216 61.9737 74.791 62.99 72.7922 62.99Z" fill="#FFE145"/>
<path d="M95.2078 62.99C93.2081 62.99 90.8747 61.9719 88.9781 60.8806C90.8738 59.7894 93.2081 58.7712 95.2078 58.7712C96.3728 58.7712 97.3172 59.7157 97.3172 60.8806C97.3172 62.0456 96.3728 62.99 95.2078 62.99Z" fill="#FFE145"/>
<path d="M72.7922 76.9127C71.6273 76.9127 70.6829 75.9683 70.6829 74.8033C70.6829 73.6384 71.6273 72.694 72.7922 72.694C74.7797 72.694 77.1216 73.7196 79.0163 74.8071C77.1216 75.8965 74.791 76.9127 72.7922 76.9127Z" fill="#FFE145"/>
<path d="M95.2078 76.9127C93.2081 76.9127 90.8747 75.8946 88.9781 74.8033C90.8738 73.7121 93.2081 72.694 95.2078 72.694C96.3728 72.694 97.3172 73.6384 97.3172 74.8033C97.3172 75.9683 96.3728 76.9127 95.2078 76.9127Z" fill="#FFE145"/>
<path d="M95.2079 69.1316C92.88 69.1316 90.2007 69.9931 87.2447 71.6928C86.2435 72.2684 85.3885 72.8403 84.75 73.295V62.3891C85.3885 62.8438 86.2444 63.4203 87.2447 63.9912C90.1997 65.6909 92.8791 66.5525 95.2079 66.5525C98.3403 66.5525 100.88 64.0131 100.88 60.8806C100.88 57.7482 98.3403 55.2087 95.2079 55.2087C92.88 55.2087 90.2007 56.0703 87.2447 57.77C86.2444 58.3438 85.3885 58.9166 84.75 59.375V55.1441C85.619 54.0315 86.4082 52.8589 87.1116 51.635C88.8113 48.6791 89.6729 46.0006 89.6729 43.6719C89.6729 40.5394 87.1335 38 84.001 38C80.8685 38 78.3291 40.5394 78.3291 43.6719C78.3291 45.9997 79.1907 48.6791 80.8904 51.635C81.5932 52.8589 82.3817 54.0315 83.25 55.1441V59.375C82.6116 58.9203 81.7557 58.3438 80.7554 57.7728C77.8004 56.0731 75.121 55.2116 72.7922 55.2116C69.6598 55.2116 67.1204 57.751 67.1204 60.8834C67.1204 64.0159 69.6598 66.5553 72.7922 66.5553C75.12 66.5553 77.7994 65.6937 80.7554 63.9941C81.7566 63.4184 82.6116 62.8466 83.25 62.3919V73.295C82.6116 72.8403 81.7557 72.2638 80.7554 71.6928C77.8004 69.9931 75.121 69.1316 72.7922 69.1316C69.6598 69.1316 67.1204 71.671 67.1204 74.8034C67.1204 77.9359 69.6598 80.4753 72.7922 80.4753C75.12 80.4753 77.7994 79.6138 80.7554 77.9141C81.7566 77.3384 82.6116 76.7666 83.25 76.3119V86H84.75V76.3119C85.3885 76.7666 86.2444 77.3431 87.2447 77.9141C90.1997 79.6138 92.8791 80.4753 95.2079 80.4753C98.3403 80.4753 100.88 77.9359 100.88 74.8034C100.88 71.671 98.3403 69.1316 95.2079 69.1316ZM95.2079 56.7078C97.512 56.7065 99.3809 58.5732 99.3822 60.8773C99.3835 63.1813 97.5168 65.0502 95.2127 65.0516C95.2111 65.0516 95.2095 65.0516 95.2079 65.0516C91.3107 65.0516 86.9447 62.1453 85.2291 60.8797C86.9447 59.615 91.3125 56.7078 95.2079 56.7078ZM79.8282 43.6719C79.8282 41.3678 81.696 39.5 84 39.5C86.3041 39.5 88.1719 41.3678 88.1719 43.6719C88.1719 47.5691 85.2657 51.9359 83.9991 53.6516C82.7344 51.9378 79.8282 47.5756 79.8282 43.6719ZM72.7969 65.0516C70.4928 65.0516 68.625 63.1838 68.625 60.8797C68.625 58.5756 70.4928 56.7078 72.7969 56.7078C76.6941 56.7078 81.061 59.6141 82.7766 60.8806C81.0582 62.1462 76.696 65.0525 72.7922 65.0525L72.7969 65.0516ZM72.7969 78.9753C70.4928 78.9753 68.625 77.1075 68.625 74.8034C68.625 72.4993 70.4928 70.6316 72.7969 70.6316C76.6941 70.6316 81.061 73.5378 82.7766 74.8044C81.0582 76.0691 76.696 78.9753 72.7922 78.9753H72.7969ZM95.2126 78.9753C91.3154 78.9753 86.9494 76.0691 85.2338 74.8034C86.9494 73.5378 91.3163 70.6316 95.2126 70.6316C97.5166 70.6316 99.3844 72.4993 99.3844 74.8034C99.3844 77.1075 97.5166 78.9753 95.2126 78.9753Z" fill="#B79C10"/>
</g>
<defs>
<filter id="filter0_d_17_6125" x="0" y="0" width="168" height="168" filterUnits="userSpaceOnUse" color-interpolation-filters="sRGB">
<feFlood flood-opacity="0" result="BackgroundImageFix"/>
<feColorMatrix in="SourceAlpha" type="matrix" values="0 0 0 0 0 0 0 0 0 0 0 0 0 0 0 0 0 0 127 0" result="hardAlpha"/>
<feOffset dy="2"/>
<feGaussianBlur stdDeviation="8"/>
<feColorMatrix type="matrix" values="0 0 0 0 0.235764 0 0 0 0 0.244708 0 0 0 0 0.291667 0 0 0 0.08 0"/>
<feBlend mode="multiply" in2="BackgroundImageFix" result="effect1_dropShadow_17_6125"/>
<feBlend mode="normal" in="SourceGraphic" in2="effect1_dropShadow_17_6125" result="shape"/>
</filter>
</defs>
</svg>
