<svg width="168" height="168" viewBox="0 0 168 168" fill="none" xmlns="http://www.w3.org/2000/svg">
<g filter="url(#filter0_d_17_6087)">
<rect x="16" y="14" width="136" height="136" rx="6" fill="white"/>
<path d="M58.5774 118.24C57.4041 118.24 56.4121 117.979 55.6014 117.456C54.7908 116.933 54.1828 116.24 53.7774 115.376C53.3828 114.512 53.1854 113.568 53.1854 112.544C53.1854 111.52 53.3934 110.581 53.8094 109.728C54.2361 108.875 54.8654 108.192 55.6974 107.68C56.5401 107.168 57.5641 106.912 58.7694 106.912C59.4948 106.912 60.1774 107.035 60.8174 107.28C61.4574 107.525 61.9908 107.872 62.4174 108.32L61.8254 109.12C61.4841 108.747 61.0361 108.448 60.4814 108.224C59.9268 108 59.3561 107.888 58.7694 107.888C57.8521 107.888 57.0681 108.091 56.4174 108.496C55.7668 108.901 55.2708 109.461 54.9294 110.176C54.5988 110.88 54.4334 111.675 54.4334 112.56C54.4334 113.467 54.5934 114.277 54.9134 114.992C55.2334 115.696 55.7028 116.256 56.3214 116.672C56.9401 117.077 57.6921 117.28 58.5774 117.28C59.9214 117.28 61.0841 116.731 62.0654 115.632L62.6094 116.416C62.1294 116.949 61.5481 117.387 60.8654 117.728C60.1828 118.069 59.4201 118.24 58.5774 118.24ZM69.5784 109.248C70.4851 109.248 71.1038 109.483 71.4344 109.952C71.7758 110.421 71.9464 111.099 71.9464 111.984V118H70.7464V112.08C70.7464 111.429 70.6344 110.96 70.4104 110.672C70.1971 110.373 69.8291 110.224 69.3064 110.224C68.9011 110.224 68.4851 110.325 68.0584 110.528C67.6318 110.72 67.1571 111.019 66.6344 111.424V118H65.4344V105.2H66.6344V110.416C67.6478 109.637 68.6291 109.248 69.5784 109.248ZM76.1701 106.672C75.9567 106.672 75.7701 106.597 75.6101 106.448C75.4501 106.288 75.3701 106.101 75.3701 105.888C75.3701 105.664 75.4501 105.472 75.6101 105.312C75.7701 105.152 75.9567 105.072 76.1701 105.072C76.3941 105.072 76.5807 105.152 76.7301 105.312C76.8901 105.472 76.9701 105.664 76.9701 105.888C76.9701 106.101 76.8901 106.288 76.7301 106.448C76.5807 106.597 76.3941 106.672 76.1701 106.672ZM75.5621 109.552H76.7621V118H75.5621V109.552ZM83.6977 118.304C82.823 118.304 82.087 118.101 81.4897 117.696C80.8924 117.291 80.4444 116.747 80.1457 116.064C79.847 115.381 79.6977 114.624 79.6977 113.792C79.6977 112.96 79.847 112.203 80.1457 111.52C80.455 110.827 80.9244 110.277 81.5537 109.872C82.183 109.456 82.951 109.248 83.8577 109.248C84.391 109.248 84.8977 109.344 85.3777 109.536C85.8577 109.728 86.2577 109.989 86.5777 110.32L86.0657 111.184C85.7884 110.885 85.4524 110.645 85.0577 110.464C84.663 110.283 84.263 110.192 83.8577 110.192C82.9297 110.192 82.2097 110.523 81.6977 111.184C81.1857 111.845 80.9297 112.709 80.9297 113.776C80.9297 114.843 81.1697 115.707 81.6497 116.368C82.1404 117.019 82.823 117.344 83.6977 117.344C84.231 117.344 84.7057 117.232 85.1217 117.008C85.5377 116.773 85.9217 116.453 86.2737 116.048L86.7697 116.8C86.4177 117.237 85.9804 117.6 85.4577 117.888C84.935 118.165 84.3484 118.304 83.6977 118.304ZM89.2313 105.2H90.4313V118H89.2313V105.2ZM96.0793 118H94.6713L90.8313 113.536V113.216L94.1273 109.552H95.4713L92.0153 113.328L96.0793 118ZM104.897 116.752C104.022 117.787 102.966 118.304 101.729 118.304C100.865 118.304 100.134 118.101 99.5366 117.696C98.9392 117.291 98.4912 116.747 98.1926 116.064C97.8939 115.371 97.7446 114.613 97.7446 113.792C97.7446 112.949 97.8939 112.187 98.1926 111.504C98.4912 110.811 98.9392 110.261 99.5366 109.856C100.134 109.451 100.865 109.248 101.729 109.248C102.315 109.248 102.849 109.371 103.329 109.616C103.809 109.851 104.187 110.203 104.465 110.672C104.742 111.131 104.881 111.675 104.881 112.304C104.881 112.571 104.849 112.864 104.785 113.184H98.9926C98.9712 113.44 98.9606 113.632 98.9606 113.76C98.9606 114.837 99.2006 115.707 99.6806 116.368C100.161 117.019 100.849 117.344 101.745 117.344C102.289 117.344 102.774 117.227 103.201 116.992C103.627 116.747 104.027 116.416 104.401 116L104.897 116.752ZM101.713 110.16C101.051 110.16 100.502 110.352 100.065 110.736C99.6379 111.109 99.3339 111.621 99.1526 112.272H103.681V112.16C103.681 111.52 103.483 111.029 103.089 110.688C102.705 110.336 102.246 110.16 101.713 110.16ZM111.907 109.248C112.814 109.248 113.432 109.483 113.763 109.952C114.104 110.421 114.275 111.099 114.275 111.984V118H113.075V112.08C113.075 111.429 112.963 110.96 112.739 110.672C112.526 110.373 112.158 110.224 111.635 110.224C111.219 110.224 110.798 110.325 110.371 110.528C109.944 110.72 109.47 111.019 108.947 111.424V118H107.747V109.552H108.691L108.867 110.464C109.902 109.653 110.915 109.248 111.907 109.248Z" fill="#313030"/>
<path d="M71.9681 68.3669V67.0619C71.9733 62.6112 75.5799 59.0045 80.0306 58.9994H83.849C89.5997 58.9994 94.4315 63.0035 95.7047 68.3744L71.9681 68.3669Z" fill="#FFE145"/>
<path d="M108 70.4293H99.5756C99.4182 67.1694 98.252 64.0388 96.2381 61.4705C96.4745 60.6073 96.4651 59.6953 96.2109 58.8371L98.6831 56.3649C99.8509 57.2474 101.513 57.0164 102.396 55.8486C103.278 54.6809 103.047 53.0188 101.879 52.1362C101.409 51.7807 100.834 51.5922 100.244 51.6005C100.265 50.1369 99.0947 48.9338 97.6312 48.9134C96.1675 48.8928 94.9644 50.0627 94.944 51.5263C94.9357 52.1158 95.1243 52.6911 95.4797 53.1614L93.0103 55.6308C91.618 55.2155 90.1124 55.457 88.92 56.2871C87.2942 55.7364 85.5891 55.4564 83.8725 55.4583H80.0287C73.6115 55.4655 68.411 60.666 68.4037 67.0833V70.4302H60V71.9302H66.5512L69.9891 75.0868H98.0109L101.449 71.9302H108V70.4293ZM97.7316 53.0321L96.9628 52.5258C96.4315 52.1774 96.2833 51.4644 96.6317 50.9331C96.9801 50.4018 97.6931 50.2536 98.2244 50.602C98.7557 50.9504 98.9039 51.6634 98.5555 52.1947C98.5125 52.2603 98.4629 52.3213 98.4075 52.3768L99.4688 53.438C99.9179 52.9888 100.646 52.9887 101.095 53.4379C101.545 53.8871 101.545 54.6154 101.096 55.0647C100.646 55.5139 99.9181 55.514 99.4688 55.0648C99.4133 55.0093 99.3637 54.9482 99.3206 54.8827L98.8144 54.1139L95.5125 57.4158C95.2126 56.9992 94.8473 56.6339 94.4306 56.3339L97.7316 53.0321ZM69.9056 67.0824C69.9118 61.4931 74.4413 56.9636 80.0306 56.9574H83.8744C85.1463 56.9561 86.4126 57.1254 87.6394 57.4608L85.4241 59.6743L86.4844 60.7346L89.3278 57.8911C90.6054 56.6138 92.6766 56.614 93.9539 57.8916C95.2312 59.1692 95.2311 61.2404 93.9534 62.5177L91.11 65.3611L92.1703 66.4214L95.0138 63.578C95.1929 63.3986 95.3574 63.2052 95.5059 62.9996C97.0412 65.1865 97.9307 67.761 98.0728 70.4293H69.9056V67.0824ZM97.4269 73.5858H70.5731L68.7694 71.9293H99.2306L97.4269 73.5858Z" fill="#B79C10"/>
<path d="M72.9681 66.3953C72.9681 66.9648 73.4298 67.4265 73.9994 67.4265C74.5689 67.4265 75.0306 66.9648 75.0306 66.3953C75.0306 65.8257 74.5689 65.364 73.9994 65.364C73.4298 65.364 72.9681 65.8257 72.9681 66.3953Z" fill="#B79C10"/>
<path d="M77.8984 66.3953C77.8984 66.9648 78.3601 67.4265 78.9297 67.4265C79.4992 67.4265 79.9609 66.9648 79.9609 66.3953C79.9609 65.8257 79.4992 65.364 78.9297 65.364C78.3601 65.364 77.8984 65.8257 77.8984 66.3953Z" fill="#B79C10"/>
<path d="M75.4327 62.6807C75.4327 63.2502 75.8944 63.7119 76.464 63.7119C77.0335 63.7119 77.4952 63.2502 77.4952 62.6807C77.4952 62.1111 77.0335 61.6494 76.464 61.6494C75.8944 61.6494 75.4327 62.1111 75.4327 62.6807Z" fill="#B79C10"/>
</g>
<defs>
<filter id="filter0_d_17_6087" x="0" y="0" width="168" height="168" filterUnits="userSpaceOnUse" color-interpolation-filters="sRGB">
<feFlood flood-opacity="0" result="BackgroundImageFix"/>
<feColorMatrix in="SourceAlpha" type="matrix" values="0 0 0 0 0 0 0 0 0 0 0 0 0 0 0 0 0 0 127 0" result="hardAlpha"/>
<feOffset dy="2"/>
<feGaussianBlur stdDeviation="8"/>
<feColorMatrix type="matrix" values="0 0 0 0 0.235764 0 0 0 0 0.244708 0 0 0 0 0.291667 0 0 0 0.08 0"/>
<feBlend mode="multiply" in2="BackgroundImageFix" result="effect1_dropShadow_17_6087"/>
<feBlend mode="normal" in="SourceGraphic" in2="effect1_dropShadow_17_6087" result="shape"/>
</filter>
</defs>
</svg>
