<svg width="168" height="168" viewBox="0 0 168 168" fill="none" xmlns="http://www.w3.org/2000/svg">
<g filter="url(#filter0_d_17_5760)">
<rect x="16" y="14" width="136" height="136" rx="6" fill="white"/>
<path d="M69.6616 112.272C70.4083 112.432 70.979 112.752 71.3736 113.232C71.7683 113.712 71.9656 114.299 71.9656 114.992C71.9656 115.899 71.635 116.629 70.9736 117.184C70.3123 117.728 69.3683 118 68.1416 118H64.6056V107.12H68.1416C69.219 107.12 70.0456 107.371 70.6216 107.872C71.1976 108.363 71.4856 109.04 71.4856 109.904C71.4856 110.469 71.3256 110.965 71.0056 111.392C70.6963 111.808 70.2483 112.101 69.6616 112.272ZM65.8536 108.08V111.808H68.1416C68.803 111.808 69.315 111.643 69.6776 111.312C70.051 110.981 70.2376 110.528 70.2376 109.952C70.2376 109.323 70.0563 108.853 69.6936 108.544C69.3416 108.235 68.8243 108.08 68.1416 108.08H65.8536ZM68.1416 117.04C68.963 117.04 69.5976 116.848 70.0456 116.464C70.4936 116.08 70.7176 115.557 70.7176 114.896C70.7176 114.181 70.499 113.648 70.0616 113.296C69.6243 112.944 68.9843 112.768 68.1416 112.768H65.8536V117.04H68.1416ZM81.6184 118C81.245 118.139 80.8877 118.213 80.5464 118.224C79.6504 118.224 79.1704 117.824 79.1064 117.024C78.061 117.835 77.1224 118.24 76.2904 118.24C75.629 118.24 75.085 118.053 74.6584 117.68C74.2424 117.296 74.0344 116.811 74.0344 116.224C74.0344 115.701 74.1784 115.264 74.4664 114.912C74.765 114.56 75.1757 114.267 75.6984 114.032C76.221 113.797 76.9197 113.557 77.7944 113.312L79.0904 112.944V112.224C79.0904 110.891 78.5997 110.224 77.6184 110.224C77.0744 110.224 76.5784 110.336 76.1304 110.56C75.693 110.784 75.197 111.211 74.6424 111.84L74.0504 111.12C75.1597 109.872 76.4024 109.248 77.7784 109.248C78.685 109.248 79.3304 109.483 79.7144 109.952C80.109 110.411 80.3064 111.184 80.3064 112.272V116.624C80.3064 116.859 80.3437 117.029 80.4184 117.136C80.5037 117.232 80.637 117.28 80.8184 117.28C81.0104 117.28 81.2397 117.221 81.5064 117.104L81.6184 118ZM75.2344 116.16C75.2344 116.555 75.3464 116.843 75.5704 117.024C75.7944 117.195 76.093 117.28 76.4664 117.28C76.861 117.28 77.2557 117.184 77.6504 116.992C78.0557 116.789 78.5357 116.485 79.0904 116.08V113.792L78.0824 114.096C77.0264 114.405 76.285 114.709 75.8584 115.008C75.4424 115.307 75.2344 115.691 75.2344 116.16ZM91.0451 110.48L89.0931 110.304C89.4665 110.773 89.6531 111.339 89.6531 112C89.6531 112.512 89.5411 112.981 89.3171 113.408C89.0931 113.835 88.7518 114.176 88.2931 114.432C87.8345 114.688 87.2798 114.816 86.6291 114.816C86.2238 114.816 85.8718 114.768 85.5731 114.672C85.2211 114.981 84.9705 115.227 84.8211 115.408C84.6825 115.589 84.6131 115.787 84.6131 116C84.6131 116.245 84.7038 116.421 84.8851 116.528C85.0665 116.635 85.3598 116.688 85.7651 116.688H88.5331C89.2798 116.688 89.8558 116.875 90.2611 117.248C90.6771 117.611 90.8851 118.101 90.8851 118.72C90.8851 119.317 90.6825 119.861 90.2771 120.352C89.8718 120.843 89.3118 121.227 88.5971 121.504C87.8931 121.792 87.1038 121.936 86.2291 121.936C85.0985 121.936 84.2825 121.728 83.7811 121.312C83.2905 120.896 83.0451 120.373 83.0451 119.744C83.0451 119.296 83.1518 118.907 83.3651 118.576C83.5891 118.256 83.9411 117.904 84.4211 117.52C83.7811 117.296 83.4611 116.864 83.4611 116.224C83.4611 115.904 83.5571 115.605 83.7491 115.328C83.9411 115.04 84.2718 114.699 84.7411 114.304C84.3678 114.059 84.0798 113.739 83.8771 113.344C83.6851 112.939 83.5891 112.501 83.5891 112.032C83.5891 111.531 83.7011 111.072 83.9251 110.656C84.1491 110.229 84.4905 109.888 84.9491 109.632C85.4078 109.376 85.9678 109.248 86.6291 109.248C87.1945 109.248 87.6958 109.349 88.1331 109.552H91.0451V110.48ZM86.6291 113.904C87.1945 113.904 87.6371 113.728 87.9571 113.376C88.2878 113.024 88.4531 112.571 88.4531 112.016C88.4531 111.472 88.2931 111.029 87.9731 110.688C87.6531 110.336 87.2051 110.16 86.6291 110.16C86.0638 110.16 85.6158 110.336 85.2851 110.688C84.9651 111.029 84.8051 111.472 84.8051 112.016C84.8051 112.571 84.9651 113.024 85.2851 113.376C85.6158 113.728 86.0638 113.904 86.6291 113.904ZM89.7651 118.864C89.7651 118.085 89.3065 117.696 88.3891 117.696H85.6691H85.4771C85.0505 118.027 84.7251 118.347 84.5011 118.656C84.2878 118.965 84.1811 119.307 84.1811 119.68C84.1811 120.149 84.3571 120.485 84.7091 120.688C85.0718 120.891 85.5785 120.992 86.2291 120.992C86.8905 120.992 87.4878 120.885 88.0211 120.672C88.5651 120.469 88.9918 120.203 89.3011 119.872C89.6105 119.541 89.7651 119.205 89.7651 118.864ZM99.6388 116.752C98.7641 117.787 97.7081 118.304 96.4708 118.304C95.6068 118.304 94.8761 118.101 94.2788 117.696C93.6814 117.291 93.2334 116.747 92.9348 116.064C92.6361 115.371 92.4868 114.613 92.4868 113.792C92.4868 112.949 92.6361 112.187 92.9348 111.504C93.2334 110.811 93.6814 110.261 94.2788 109.856C94.8761 109.451 95.6068 109.248 96.4708 109.248C97.0574 109.248 97.5908 109.371 98.0708 109.616C98.5508 109.851 98.9294 110.203 99.2068 110.672C99.4841 111.131 99.6228 111.675 99.6228 112.304C99.6228 112.571 99.5908 112.864 99.5268 113.184H93.7348C93.7134 113.44 93.7028 113.632 93.7028 113.76C93.7028 114.837 93.9428 115.707 94.4228 116.368C94.9028 117.019 95.5908 117.344 96.4868 117.344C97.0308 117.344 97.5161 117.227 97.9428 116.992C98.3694 116.747 98.7694 116.416 99.1428 116L99.6388 116.752ZM96.4548 110.16C95.7934 110.16 95.2441 110.352 94.8068 110.736C94.3801 111.109 94.0761 111.621 93.8948 112.272H98.4228V112.16C98.4228 111.52 98.2254 111.029 97.8308 110.688C97.4468 110.336 96.9881 110.16 96.4548 110.16ZM102.489 105.2H103.689V118H102.489V105.2Z" fill="#313030"/>
<g clip-path="url(#clip0_17_5760)">
<path d="M84 82.4375C72.7127 82.4375 63.5625 73.2873 63.5625 62C63.5625 50.7127 72.7127 41.5625 84 41.5625C95.2873 41.5625 104.438 50.7127 104.438 62C104.444 73.2811 95.3036 82.4313 84.0225 82.4375C84.015 82.4375 84.0075 82.4375 84 82.4375ZM84 55.6681C80.503 55.6681 77.6681 58.503 77.6681 62C77.6681 65.497 80.503 68.3319 84 68.3319C87.497 68.3319 90.3319 65.497 90.3319 62C90.3282 58.5045 87.4955 55.6718 84 55.6681Z" fill="#FFE145"/>
<path d="M84 86C70.7353 86 60 75.2656 60 62C60 48.7344 70.7344 38 84 38C97.2656 38 108 48.7344 108 62C108 75.2656 97.2656 86 84 86ZM84 39.5C71.5641 39.5 61.5 49.5631 61.5 62C61.5 74.4369 71.5631 84.5 84 84.5C96.4369 84.5 106.5 74.4369 106.5 62C106.5 49.5631 96.4369 39.5 84 39.5ZM84 69.0819C80.0887 69.0819 76.9181 65.9113 76.9181 62C76.9181 58.0887 80.0887 54.9181 84 54.9181C87.9113 54.9181 91.0819 58.0887 91.0819 62C91.0778 65.9095 87.9095 69.0778 84 69.0819ZM84 56.4191C80.9172 56.4191 78.4181 58.9182 78.4181 62.0009C78.4181 65.0837 80.9172 67.5828 84 67.5828C87.0828 67.5828 89.5819 65.0837 89.5819 62.0009C89.5819 62.0007 89.5819 62.0003 89.5819 62C89.5788 58.9185 87.0815 56.4212 84 56.4181V56.4191Z" fill="#B79C10"/>
<path d="M88.5694 50.5016V48.8984C88.5694 48.4842 88.2336 48.1484 87.8194 48.1484C87.4052 48.1484 87.0694 48.4842 87.0694 48.8984V50.5016C87.0694 50.9158 87.4052 51.2516 87.8194 51.2516C88.2336 51.2516 88.5694 50.9158 88.5694 50.5016Z" fill="#B79C10"/>
<path d="M95.4944 49.1969V47.5938C95.4944 47.1795 95.1586 46.8438 94.7444 46.8438C94.3302 46.8438 93.9944 47.1795 93.9944 47.5937V49.1969C93.9944 49.6111 94.3302 49.9469 94.7444 49.9469C95.1586 49.9469 95.4944 49.6111 95.4944 49.1969Z" fill="#B79C10"/>
<path d="M96.4894 60.1654V58.5623C96.4894 58.148 96.1536 57.8123 95.7394 57.8123C95.3252 57.8123 94.9894 58.148 94.9894 58.5623V60.1654C94.9894 60.5796 95.3252 60.9154 95.7394 60.9154C96.1536 60.9154 96.4894 60.5796 96.4894 60.1654Z" fill="#B79C10"/>
<path d="M90.5018 78.7574V77.1543C90.5018 76.7401 90.166 76.4043 89.7518 76.4043C89.3376 76.4043 89.0018 76.7401 89.0018 77.1543V78.7574C89.0018 79.1716 89.3376 79.5074 89.7518 79.5074C90.166 79.5074 90.5018 79.1716 90.5018 78.7574Z" fill="#B79C10"/>
<path d="M83.9494 73.9747V72.3716C83.9494 71.9574 83.6136 71.6216 83.1994 71.6216C82.7851 71.6216 82.4494 71.9574 82.4494 72.3716V73.9747C82.4494 74.3889 82.7851 74.7247 83.1994 74.7247C83.6136 74.7247 83.9494 74.3889 83.9494 73.9747Z" fill="#B79C10"/>
<path d="M77.7522 77.4061V75.803C77.7522 75.3888 77.4164 75.053 77.0022 75.053C76.588 75.053 76.2522 75.3888 76.2522 75.803V77.4061C76.2522 77.8203 76.588 78.1561 77.0022 78.1561C77.4164 78.1561 77.7522 77.8203 77.7522 77.4061Z" fill="#B79C10"/>
<path d="M101.547 67.6466V66.0435C101.547 65.6292 101.211 65.2935 100.797 65.2935C100.382 65.2935 100.047 65.6292 100.047 66.0435V67.6466C100.047 68.0608 100.382 68.3966 100.797 68.3966C101.211 68.3966 101.547 68.0608 101.547 67.6466Z" fill="#B79C10"/>
<path d="M93.7181 70.355V68.7518C93.7181 68.3376 93.3823 68.0018 92.9681 68.0018C92.5539 68.0018 92.2181 68.3376 92.2181 68.7518V70.355C92.2181 70.7692 92.5539 71.105 92.9681 71.105C93.3823 71.105 93.7181 70.7692 93.7181 70.355Z" fill="#B79C10"/>
<path d="M74.9709 56.763V55.1599C74.9709 54.7457 74.6351 54.4099 74.2209 54.4099C73.8067 54.4099 73.4709 54.7457 73.4709 55.1599V56.763C73.4709 57.1773 73.8067 57.513 74.2209 57.513C74.6351 57.513 74.9709 57.1773 74.9709 56.763Z" fill="#B79C10"/>
<path d="M78.3197 46.5012V44.899C78.3197 44.4848 77.9839 44.149 77.5697 44.149C77.1554 44.149 76.8197 44.4848 76.8197 44.899V46.5012C76.8197 46.9154 77.1554 47.2512 77.5697 47.2512C77.9839 47.2512 78.3197 46.9154 78.3197 46.5012Z" fill="#B79C10"/>
<path d="M67.5625 62.5006V60.8975C67.5625 60.4832 67.2267 60.1475 66.8125 60.1475C66.3983 60.1475 66.0625 60.4832 66.0625 60.8975V62.5006C66.0625 62.9148 66.3983 63.2506 66.8125 63.2506C67.2267 63.2506 67.5625 62.9148 67.5625 62.5006Z" fill="#B79C10"/>
<path d="M74.5434 69.6107V68.0076C74.5434 67.5934 74.2077 67.2576 73.7934 67.2576C73.3792 67.2576 73.0434 67.5934 73.0434 68.0076V69.6107C73.0434 70.0249 73.3792 70.3607 73.7934 70.3607C74.2077 70.3607 74.5434 70.0249 74.5434 69.6107Z" fill="#B79C10"/>
</g>
</g>
<defs>
<filter id="filter0_d_17_5760" x="0" y="0" width="168" height="168" filterUnits="userSpaceOnUse" color-interpolation-filters="sRGB">
<feFlood flood-opacity="0" result="BackgroundImageFix"/>
<feColorMatrix in="SourceAlpha" type="matrix" values="0 0 0 0 0 0 0 0 0 0 0 0 0 0 0 0 0 0 127 0" result="hardAlpha"/>
<feOffset dy="2"/>
<feGaussianBlur stdDeviation="8"/>
<feColorMatrix type="matrix" values="0 0 0 0 0.235764 0 0 0 0 0.244708 0 0 0 0 0.291667 0 0 0 0.08 0"/>
<feBlend mode="multiply" in2="BackgroundImageFix" result="effect1_dropShadow_17_5760"/>
<feBlend mode="normal" in="SourceGraphic" in2="effect1_dropShadow_17_5760" result="shape"/>
</filter>
<clipPath id="clip0_17_5760">
<rect width="48" height="48" fill="white" transform="translate(60 38)"/>
</clipPath>
</defs>
</svg>
