<svg width="168" height="168" viewBox="0 0 168 168" fill="none" xmlns="http://www.w3.org/2000/svg">
<g filter="url(#filter0_d_17_6123)">
<rect x="16" y="14" width="136" height="136" rx="6" fill="white"/>
<path d="M46.4943 108.08V112H50.8463V112.976H46.4943V118H45.2463V107.12H51.4862V108.08H46.4943ZM54.6935 106.672C54.4802 106.672 54.2935 106.597 54.1335 106.448C53.9735 106.288 53.8935 106.101 53.8935 105.888C53.8935 105.664 53.9735 105.472 54.1335 105.312C54.2935 105.152 54.4802 105.072 54.6935 105.072C54.9175 105.072 55.1042 105.152 55.2535 105.312C55.4135 105.472 55.4935 105.664 55.4935 105.888C55.4935 106.101 55.4135 106.288 55.2535 106.448C55.1042 106.597 54.9175 106.672 54.6935 106.672ZM54.0855 109.552H55.2855V118H54.0855V109.552ZM61.2131 118.304C60.5625 118.304 60.0025 118.235 59.5331 118.096C59.0638 117.957 58.6265 117.744 58.2211 117.456L58.6371 116.56C59.2985 117.083 60.1571 117.344 61.2131 117.344C61.7891 117.344 62.2531 117.205 62.6051 116.928C62.9678 116.651 63.1491 116.261 63.1491 115.76C63.1491 115.472 63.0585 115.232 62.8771 115.04C62.7065 114.848 62.4931 114.688 62.2371 114.56C61.9811 114.432 61.6238 114.283 61.1651 114.112C60.6105 113.909 60.1571 113.723 59.8051 113.552C59.4638 113.371 59.1705 113.125 58.9251 112.816C58.6798 112.496 58.5571 112.091 58.5571 111.6C58.5571 110.843 58.8185 110.261 59.3411 109.856C59.8745 109.451 60.5571 109.248 61.3891 109.248C62.4131 109.248 63.3091 109.525 64.0771 110.08L63.6771 110.96C62.9945 110.448 62.2371 110.192 61.4051 110.192C60.9038 110.192 60.4985 110.304 60.1891 110.528C59.8798 110.752 59.7251 111.088 59.7251 111.536C59.7251 111.824 59.8105 112.069 59.9811 112.272C60.1625 112.464 60.3811 112.624 60.6371 112.752C60.8931 112.869 61.2505 113.008 61.7091 113.168C62.2851 113.381 62.7385 113.579 63.0691 113.76C63.4105 113.931 63.7038 114.176 63.9491 114.496C64.1945 114.816 64.3171 115.227 64.3171 115.728C64.3171 116.517 64.0291 117.147 63.4531 117.616C62.8878 118.075 62.1411 118.304 61.2131 118.304ZM71.2738 109.248C72.1804 109.248 72.7991 109.483 73.1298 109.952C73.4711 110.421 73.6418 111.099 73.6418 111.984V118H72.4418V112.08C72.4418 111.429 72.3298 110.96 72.1058 110.672C71.8924 110.373 71.5244 110.224 71.0018 110.224C70.5964 110.224 70.1804 110.325 69.7538 110.528C69.3271 110.72 68.8524 111.019 68.3298 111.424V118H67.1298V105.2H68.3298V110.416C69.3431 109.637 70.3244 109.248 71.2738 109.248ZM76.2974 109.6C76.9587 109.173 77.2894 108.523 77.2894 107.648C77.2894 107.221 77.22 106.795 77.0814 106.368L78.2814 106.208C78.3774 106.603 78.4254 106.976 78.4254 107.328C78.4254 107.979 78.276 108.549 77.9774 109.04C77.6787 109.531 77.268 109.915 76.7454 110.192L76.2974 109.6ZM86.6946 118.24C85.5213 118.24 84.5293 117.979 83.7186 117.456C82.908 116.933 82.3 116.24 81.8946 115.376C81.5 114.512 81.3026 113.568 81.3026 112.544C81.3026 111.52 81.5106 110.581 81.9266 109.728C82.3533 108.875 82.9826 108.192 83.8146 107.68C84.6573 107.168 85.6813 106.912 86.8866 106.912C87.612 106.912 88.2946 107.035 88.9346 107.28C89.5746 107.525 90.108 107.872 90.5346 108.32L89.9426 109.12C89.6013 108.747 89.1533 108.448 88.5986 108.224C88.044 108 87.4733 107.888 86.8866 107.888C85.9693 107.888 85.1853 108.091 84.5346 108.496C83.884 108.901 83.388 109.461 83.0466 110.176C82.716 110.88 82.5506 111.675 82.5506 112.56C82.5506 113.467 82.7106 114.277 83.0306 114.992C83.3506 115.696 83.82 116.256 84.4386 116.672C85.0573 117.077 85.8093 117.28 86.6946 117.28C88.0386 117.28 89.2013 116.731 90.1826 115.632L90.7266 116.416C90.2466 116.949 89.6653 117.387 88.9826 117.728C88.3 118.069 87.5373 118.24 86.6946 118.24ZM97.6956 109.248C98.6023 109.248 99.221 109.483 99.5516 109.952C99.893 110.421 100.064 111.099 100.064 111.984V118H98.8636V112.08C98.8636 111.429 98.7516 110.96 98.5276 110.672C98.3143 110.373 97.9463 110.224 97.4236 110.224C97.0183 110.224 96.6023 110.325 96.1756 110.528C95.749 110.72 95.2743 111.019 94.7516 111.424V118H93.5516V105.2H94.7516V110.416C95.765 109.637 96.7463 109.248 97.6956 109.248ZM104.287 106.672C104.074 106.672 103.887 106.597 103.727 106.448C103.567 106.288 103.487 106.101 103.487 105.888C103.487 105.664 103.567 105.472 103.727 105.312C103.887 105.152 104.074 105.072 104.287 105.072C104.511 105.072 104.698 105.152 104.847 105.312C105.007 105.472 105.087 105.664 105.087 105.888C105.087 106.101 105.007 106.288 104.847 106.448C104.698 106.597 104.511 106.672 104.287 106.672ZM103.679 109.552H104.879V118H103.679V109.552ZM112.247 109.248C112.93 109.248 113.527 109.419 114.039 109.76C114.562 110.101 114.967 110.597 115.255 111.248C115.543 111.899 115.687 112.672 115.687 113.568C115.687 114.603 115.506 115.477 115.143 116.192C114.791 116.896 114.295 117.424 113.655 117.776C113.015 118.128 112.279 118.304 111.447 118.304C110.839 118.304 110.284 118.192 109.783 117.968V121.776H108.583V109.504H109.527L109.671 110.24C110.407 109.579 111.266 109.248 112.247 109.248ZM111.415 117.344C112.439 117.344 113.196 117.008 113.687 116.336C114.188 115.653 114.439 114.725 114.439 113.552C114.439 112.389 114.22 111.547 113.783 111.024C113.356 110.491 112.828 110.224 112.199 110.224C111.73 110.224 111.314 110.293 110.951 110.432C110.599 110.571 110.21 110.8 109.783 111.12V116.992C110.252 117.227 110.796 117.344 111.415 117.344ZM120.713 118.304C120.062 118.304 119.502 118.235 119.033 118.096C118.564 117.957 118.126 117.744 117.721 117.456L118.137 116.56C118.798 117.083 119.657 117.344 120.713 117.344C121.289 117.344 121.753 117.205 122.105 116.928C122.468 116.651 122.649 116.261 122.649 115.76C122.649 115.472 122.558 115.232 122.377 115.04C122.206 114.848 121.993 114.688 121.737 114.56C121.481 114.432 121.124 114.283 120.665 114.112C120.11 113.909 119.657 113.723 119.305 113.552C118.964 113.371 118.67 113.125 118.425 112.816C118.18 112.496 118.057 112.091 118.057 111.6C118.057 110.843 118.318 110.261 118.841 109.856C119.374 109.451 120.057 109.248 120.889 109.248C121.913 109.248 122.809 109.525 123.577 110.08L123.177 110.96C122.494 110.448 121.737 110.192 120.905 110.192C120.404 110.192 119.998 110.304 119.689 110.528C119.38 110.752 119.225 111.088 119.225 111.536C119.225 111.824 119.31 112.069 119.481 112.272C119.662 112.464 119.881 112.624 120.137 112.752C120.393 112.869 120.75 113.008 121.209 113.168C121.785 113.381 122.238 113.579 122.569 113.76C122.91 113.931 123.204 114.176 123.449 114.496C123.694 114.816 123.817 115.227 123.817 115.728C123.817 116.517 123.529 117.147 122.953 117.616C122.388 118.075 121.641 118.304 120.713 118.304Z" fill="#313030"/>
<path d="M92.0815 59.7243V38H80.4186V42.7169H75.3395V59.697L69 59.6867L72.6617 86H94.7594L98.4126 59.7384L92.0815 59.7243ZM87.0025 39.5021H90.5767V59.6885H87.0025V39.5021ZM81.9234 39.5021H85.4976V59.6885H81.9234V39.5021ZM76.8443 44.2218H80.4185V59.6885H76.8443V44.2218ZM93.4501 84.4951H73.9709L70.7306 61.1944L96.6837 61.2367L93.4501 84.4951Z" fill="#B79C10"/>
<path d="M73.1084 63.2673L75.7731 82.4258H91.6479L94.3079 63.306L73.1084 63.2673ZM83.7105 79.1338C80.6456 79.1338 78.1611 76.6493 78.1611 73.5844C78.1611 70.5196 80.6456 68.0351 83.7105 68.0351C86.7754 68.0351 89.2598 70.5196 89.2598 73.5844C89.2598 76.6493 86.7754 79.1338 83.7105 79.1338Z" fill="#FFE145"/>
<path d="M83.7105 79.8862C80.2301 79.8862 77.4087 77.0647 77.4087 73.5844C77.4087 70.104 80.2301 67.2826 83.7105 67.2826C87.1908 67.2826 90.0123 70.104 90.0123 73.5844C90.0071 77.0626 87.1887 79.881 83.7105 79.8862ZM83.7105 68.7875C81.0612 68.7875 78.9136 70.9351 78.9136 73.5844C78.9136 76.2337 81.0612 78.3813 83.7105 78.3813C86.3598 78.3813 88.5074 76.2337 88.5074 73.5844C88.5033 70.9369 86.358 68.7916 83.7105 68.7875Z" fill="#B79C10"/>
</g>
<defs>
<filter id="filter0_d_17_6123" x="0" y="0" width="168" height="168" filterUnits="userSpaceOnUse" color-interpolation-filters="sRGB">
<feFlood flood-opacity="0" result="BackgroundImageFix"/>
<feColorMatrix in="SourceAlpha" type="matrix" values="0 0 0 0 0 0 0 0 0 0 0 0 0 0 0 0 0 0 127 0" result="hardAlpha"/>
<feOffset dy="2"/>
<feGaussianBlur stdDeviation="8"/>
<feColorMatrix type="matrix" values="0 0 0 0 0.235764 0 0 0 0 0.244708 0 0 0 0 0.291667 0 0 0 0.08 0"/>
<feBlend mode="multiply" in2="BackgroundImageFix" result="effect1_dropShadow_17_6123"/>
<feBlend mode="normal" in="SourceGraphic" in2="effect1_dropShadow_17_6123" result="shape"/>
</filter>
</defs>
</svg>
