<svg width="168" height="168" viewBox="0 0 168 168" fill="none" xmlns="http://www.w3.org/2000/svg">
<g filter="url(#filter0_d_17_6124)">
<rect x="16" y="14" width="136" height="136" rx="6" fill="white"/>
<path d="M68.9314 107.12C70.1688 107.12 71.1074 107.403 71.7474 107.968C72.3981 108.533 72.7234 109.291 72.7234 110.24C72.7234 111.221 72.4034 111.995 71.7634 112.56C71.1234 113.115 70.1794 113.392 68.9314 113.392H66.6114V118H65.3634V107.12H68.9314ZM68.9314 112.432C69.7634 112.432 70.3928 112.251 70.8194 111.888C71.2568 111.525 71.4754 110.981 71.4754 110.256C71.4754 109.584 71.2568 109.056 70.8194 108.672C70.3821 108.277 69.7528 108.08 68.9314 108.08H66.6114V112.432H68.9314ZM75.9669 106.672C75.7536 106.672 75.5669 106.597 75.4069 106.448C75.2469 106.288 75.1669 106.101 75.1669 105.888C75.1669 105.664 75.2469 105.472 75.4069 105.312C75.5669 105.152 75.7536 105.072 75.9669 105.072C76.1909 105.072 76.3776 105.152 76.5269 105.312C76.6869 105.472 76.7669 105.664 76.7669 105.888C76.7669 106.101 76.6869 106.288 76.5269 106.448C76.3776 106.597 76.1909 106.672 75.9669 106.672ZM75.3589 109.552H76.5589V118H75.3589V109.552ZM86.0066 117.072V118H79.4626V117.376L84.4386 110.464H79.6386V109.552H85.8466V110.24L80.9346 117.072H86.0066ZM94.5222 117.072V118H87.9782V117.376L92.9542 110.464H88.1542V109.552H94.3622V110.24L89.4502 117.072H94.5222ZM104.142 118C103.768 118.139 103.411 118.213 103.07 118.224C102.174 118.224 101.694 117.824 101.63 117.024C100.584 117.835 99.6458 118.24 98.8138 118.24C98.1525 118.24 97.6085 118.053 97.1818 117.68C96.7658 117.296 96.5578 116.811 96.5578 116.224C96.5578 115.701 96.7018 115.264 96.9898 114.912C97.2885 114.56 97.6991 114.267 98.2218 114.032C98.7445 113.797 99.4431 113.557 100.318 113.312L101.614 112.944V112.224C101.614 110.891 101.123 110.224 100.142 110.224C99.5978 110.224 99.1018 110.336 98.6538 110.56C98.2165 110.784 97.7205 111.211 97.1658 111.84L96.5738 111.12C97.6831 109.872 98.9258 109.248 100.302 109.248C101.208 109.248 101.854 109.483 102.238 109.952C102.632 110.411 102.83 111.184 102.83 112.272V116.624C102.83 116.859 102.867 117.029 102.942 117.136C103.027 117.232 103.16 117.28 103.342 117.28C103.534 117.28 103.763 117.221 104.03 117.104L104.142 118ZM97.7578 116.16C97.7578 116.555 97.8698 116.843 98.0938 117.024C98.3178 117.195 98.6165 117.28 98.9898 117.28C99.3845 117.28 99.7791 117.184 100.174 116.992C100.579 116.789 101.059 116.485 101.614 116.08V113.792L100.606 114.096C99.5498 114.405 98.8085 114.709 98.3818 115.008C97.9658 115.307 97.7578 115.691 97.7578 116.16Z" fill="#313030"/>
<path d="M84 38L64.5588 76.0969C69.6384 82.8034 76.7005 86 84 86C91.2243 86 98.3174 82.8616 103.441 76.0969L84 38ZM99.2547 71.1947C94.1723 79.6194 83.2225 82.3288 74.7978 77.2464C72.3188 75.7509 70.2417 73.6737 68.7462 71.1947L84 41.3026L99.2547 71.1947ZM84 84.4989C77.1076 84.5058 70.593 81.3497 66.3265 75.9366L67.9544 72.7466C73.8946 81.6073 85.893 83.975 94.7537 78.0348C96.844 76.6333 98.6404 74.837 100.042 72.7466L101.67 75.9366C97.404 81.3486 90.8911 84.5047 84 84.4989Z" fill="#B79C10"/>
<path d="M88.2221 54.1187C88.1702 55.6439 86.8918 56.8382 85.3666 56.7863C83.8415 56.7344 82.6471 55.456 82.6991 53.9308C82.751 52.4057 84.0294 51.2113 85.5545 51.2633C86.0714 51.2808 86.5731 51.4432 87.0024 51.7318L84 45.8435L71.1275 71.0679C76.1383 78.1769 85.9634 79.8778 93.0724 74.8672C94.5471 73.8277 95.8322 72.5427 96.8717 71.0679L88.2221 54.1187ZM78.4701 66.8158C76.943 66.8158 75.7051 65.578 75.7051 64.0509C75.7051 62.5238 76.943 61.2859 78.4701 61.2859C79.9972 61.2859 81.2351 62.5238 81.2351 64.0509C81.2351 65.578 79.9972 66.8158 78.4701 66.8158ZM89.1444 73.4276C87.6173 73.4276 86.3794 72.1897 86.3794 70.6626C86.3794 69.1355 87.6173 67.8976 89.1444 67.8976C90.6703 67.8976 91.9078 69.1338 91.9093 70.6598C91.9109 72.1869 90.6743 73.426 89.1472 73.4276C89.1463 73.4276 89.1453 73.4276 89.1444 73.4276Z" fill="#FFE145"/>
<path d="M89.1443 74.1783C87.2028 74.1783 85.6288 72.6043 85.6288 70.6627C85.6288 68.7212 87.2028 67.1472 89.1443 67.1472C91.0859 67.1472 92.6598 68.7212 92.6598 70.6627C92.6578 72.6035 91.085 74.1762 89.1443 74.1783ZM89.1443 68.6483C88.0318 68.6483 87.1299 69.5502 87.1299 70.6627C87.1299 71.7753 88.0318 72.6772 89.1443 72.6772C90.2568 72.6772 91.1587 71.7753 91.1587 70.6627C91.1608 69.5492 90.2598 68.6448 89.1462 68.6427C89.1455 68.6427 89.145 68.6427 89.1443 68.6427V68.6483Z" fill="#B79C10"/>
<path d="M78.4701 67.5665C76.5285 67.5665 74.9545 65.9925 74.9545 64.0509C74.9545 62.1094 76.5285 60.5354 78.4701 60.5354C80.4116 60.5354 81.9856 62.1094 81.9856 64.0509C81.9835 65.9917 80.4108 67.5644 78.4701 67.5665ZM78.4701 62.0365C77.3575 62.0365 76.4557 62.9384 76.4557 64.0509C76.4557 65.1635 77.3575 66.0653 78.4701 66.0653C79.5826 66.0653 80.4845 65.1635 80.4845 64.0509C80.4829 62.9392 79.5817 62.0385 78.4701 62.0375V62.0365Z" fill="#B79C10"/>
<path d="M85.4599 57.5406C83.5183 57.5422 81.9431 55.9694 81.9415 54.0279C81.9399 52.0863 83.5127 50.5111 85.4543 50.5095C87.3958 50.5079 88.971 52.0807 88.9726 54.0222C88.9726 54.0232 88.9726 54.0241 88.9726 54.0251C88.9705 55.9647 87.3995 57.5369 85.4599 57.5406ZM85.4599 52.0106C84.3473 52.0091 83.4443 52.9096 83.4427 54.0222C83.4411 55.1348 84.3416 56.0379 85.4543 56.0395C86.5669 56.0411 87.4699 55.1405 87.4715 54.0279C87.4715 54.0269 87.4715 54.026 87.4715 54.0251C87.4704 52.914 86.5708 52.0133 85.4599 52.0106Z" fill="#B79C10"/>
</g>
<defs>
<filter id="filter0_d_17_6124" x="0" y="0" width="168" height="168" filterUnits="userSpaceOnUse" color-interpolation-filters="sRGB">
<feFlood flood-opacity="0" result="BackgroundImageFix"/>
<feColorMatrix in="SourceAlpha" type="matrix" values="0 0 0 0 0 0 0 0 0 0 0 0 0 0 0 0 0 0 127 0" result="hardAlpha"/>
<feOffset dy="2"/>
<feGaussianBlur stdDeviation="8"/>
<feColorMatrix type="matrix" values="0 0 0 0 0.235764 0 0 0 0 0.244708 0 0 0 0 0.291667 0 0 0 0.08 0"/>
<feBlend mode="multiply" in2="BackgroundImageFix" result="effect1_dropShadow_17_6124"/>
<feBlend mode="normal" in="SourceGraphic" in2="effect1_dropShadow_17_6124" result="shape"/>
</filter>
</defs>
</svg>
