<svg width="168" height="168" viewBox="0 0 168 168" fill="none" xmlns="http://www.w3.org/2000/svg">
<g filter="url(#filter0_d_17_6069)">
<rect x="16" y="14" width="136" height="136" rx="6" fill="white"/>
<path d="M64.9194 112.272C65.6661 112.432 66.2368 112.752 66.6314 113.232C67.0261 113.712 67.2234 114.299 67.2234 114.992C67.2234 115.899 66.8928 116.629 66.2314 117.184C65.5701 117.728 64.6261 118 63.3994 118H59.8634V107.12H63.3994C64.4768 107.12 65.3034 107.371 65.8794 107.872C66.4554 108.363 66.7434 109.04 66.7434 109.904C66.7434 110.469 66.5834 110.965 66.2634 111.392C65.9541 111.808 65.5061 112.101 64.9194 112.272ZM61.1114 108.08V111.808H63.3994C64.0608 111.808 64.5728 111.643 64.9354 111.312C65.3088 110.981 65.4954 110.528 65.4954 109.952C65.4954 109.323 65.3141 108.853 64.9514 108.544C64.5994 108.235 64.0821 108.08 63.3994 108.08H61.1114ZM63.3994 117.04C64.2208 117.04 64.8554 116.848 65.3034 116.464C65.7514 116.08 65.9754 115.557 65.9754 114.896C65.9754 114.181 65.7568 113.648 65.3194 113.296C64.8821 112.944 64.2421 112.768 63.3994 112.768H61.1114V117.04H63.3994ZM76.4602 109.552V118H75.5162L75.3402 117.072C74.3055 117.893 73.2975 118.304 72.3162 118.304C71.4095 118.304 70.7855 118.069 70.4442 117.6C70.1135 117.131 69.9482 116.448 69.9482 115.552V109.552H71.1482V115.472C71.1482 116.123 71.2549 116.592 71.4682 116.88C71.6922 117.168 72.0655 117.312 72.5882 117.312C73.0042 117.312 73.4255 117.216 73.8522 117.024C74.2895 116.832 74.7589 116.533 75.2602 116.128V109.552H76.4602ZM84.2518 110.368C83.7505 110.368 83.2651 110.464 82.7958 110.656C82.3265 110.848 81.8091 111.205 81.2438 111.728V118H80.0438V109.552H80.9878L81.2118 110.704C81.7345 110.171 82.2358 109.797 82.7158 109.584C83.2065 109.36 83.7185 109.248 84.2518 109.248V110.368ZM93.8342 110.48L91.8822 110.304C92.2555 110.773 92.4422 111.339 92.4422 112C92.4422 112.512 92.3302 112.981 92.1062 113.408C91.8822 113.835 91.5409 114.176 91.0822 114.432C90.6235 114.688 90.0689 114.816 89.4182 114.816C89.0129 114.816 88.6609 114.768 88.3622 114.672C88.0102 114.981 87.7595 115.227 87.6102 115.408C87.4715 115.589 87.4022 115.787 87.4022 116C87.4022 116.245 87.4929 116.421 87.6742 116.528C87.8555 116.635 88.1489 116.688 88.5542 116.688H91.3222C92.0689 116.688 92.6449 116.875 93.0502 117.248C93.4662 117.611 93.6742 118.101 93.6742 118.72C93.6742 119.317 93.4715 119.861 93.0662 120.352C92.6609 120.843 92.1009 121.227 91.3862 121.504C90.6822 121.792 89.8929 121.936 89.0182 121.936C87.8875 121.936 87.0715 121.728 86.5702 121.312C86.0795 120.896 85.8342 120.373 85.8342 119.744C85.8342 119.296 85.9409 118.907 86.1542 118.576C86.3782 118.256 86.7302 117.904 87.2102 117.52C86.5702 117.296 86.2502 116.864 86.2502 116.224C86.2502 115.904 86.3462 115.605 86.5382 115.328C86.7302 115.04 87.0609 114.699 87.5302 114.304C87.1569 114.059 86.8689 113.739 86.6662 113.344C86.4742 112.939 86.3782 112.501 86.3782 112.032C86.3782 111.531 86.4902 111.072 86.7142 110.656C86.9382 110.229 87.2795 109.888 87.7382 109.632C88.1969 109.376 88.7569 109.248 89.4182 109.248C89.9835 109.248 90.4849 109.349 90.9222 109.552H93.8342V110.48ZM89.4182 113.904C89.9835 113.904 90.4262 113.728 90.7462 113.376C91.0769 113.024 91.2422 112.571 91.2422 112.016C91.2422 111.472 91.0822 111.029 90.7622 110.688C90.4422 110.336 89.9942 110.16 89.4182 110.16C88.8529 110.16 88.4049 110.336 88.0742 110.688C87.7542 111.029 87.5942 111.472 87.5942 112.016C87.5942 112.571 87.7542 113.024 88.0742 113.376C88.4049 113.728 88.8529 113.904 89.4182 113.904ZM92.5542 118.864C92.5542 118.085 92.0955 117.696 91.1782 117.696H88.4582H88.2662C87.8395 118.027 87.5142 118.347 87.2902 118.656C87.0769 118.965 86.9702 119.307 86.9702 119.68C86.9702 120.149 87.1462 120.485 87.4982 120.688C87.8609 120.891 88.3675 120.992 89.0182 120.992C89.6795 120.992 90.2769 120.885 90.8102 120.672C91.3542 120.469 91.7809 120.203 92.0902 119.872C92.3995 119.541 92.5542 119.205 92.5542 118.864ZM102.428 116.752C101.553 117.787 100.497 118.304 99.2598 118.304C98.3958 118.304 97.6651 118.101 97.0678 117.696C96.4705 117.291 96.0225 116.747 95.7238 116.064C95.4251 115.371 95.2758 114.613 95.2758 113.792C95.2758 112.949 95.4251 112.187 95.7238 111.504C96.0225 110.811 96.4705 110.261 97.0678 109.856C97.6651 109.451 98.3958 109.248 99.2598 109.248C99.8465 109.248 100.38 109.371 100.86 109.616C101.34 109.851 101.718 110.203 101.996 110.672C102.273 111.131 102.412 111.675 102.412 112.304C102.412 112.571 102.38 112.864 102.316 113.184H96.5238C96.5025 113.44 96.4918 113.632 96.4918 113.76C96.4918 114.837 96.7318 115.707 97.2118 116.368C97.6918 117.019 98.3798 117.344 99.2758 117.344C99.8198 117.344 100.305 117.227 100.732 116.992C101.158 116.747 101.558 116.416 101.932 116L102.428 116.752ZM99.2438 110.16C98.5825 110.16 98.0331 110.352 97.5958 110.736C97.1691 111.109 96.8651 111.621 96.6838 112.272H101.212V112.16C101.212 111.52 101.014 111.029 100.62 110.688C100.236 110.336 99.7771 110.16 99.2438 110.16ZM109.486 110.368C108.985 110.368 108.5 110.464 108.03 110.656C107.561 110.848 107.044 111.205 106.478 111.728V118H105.278V109.552H106.222L106.446 110.704C106.969 110.171 107.47 109.797 107.95 109.584C108.441 109.36 108.953 109.248 109.486 109.248V110.368Z" fill="#313030"/>
<path d="M100.803 74.0707V75.0082C100.803 77.0564 99.1423 78.7169 97.094 78.7169H70.9059C68.8577 78.7169 67.1972 77.0564 67.1972 75.0082V74.0707H100.803Z" fill="#FFE145"/>
<path d="M100.756 54.388V55.9161H67.245V54.388C67.245 49.3594 71.3214 45.283 76.35 45.283H91.6509C96.6795 45.283 100.756 49.3594 100.756 54.388Z" fill="#FFE145"/>
<path d="M108 64.243H107.062C108.38 62.5538 108.078 60.1166 106.389 58.7996C105.793 58.3347 105.074 58.0543 104.32 57.9926V54.388C104.32 47.4026 98.6372 41.7205 91.6528 41.7205H76.35C69.3647 41.7205 63.6825 47.4036 63.6825 54.388V57.9926C61.5475 58.1659 59.9572 60.0371 60.1305 62.1721C60.1917 62.9263 60.4722 63.6461 60.9375 64.243H60V65.743H61.9941V72.0083H63.6347V75.0083C63.6388 79.0224 66.8918 82.2754 70.9059 82.2795H97.0941C101.108 82.2754 104.361 79.0224 104.365 75.0083V72.0083H106.006V65.743H108V64.243ZM65.1816 54.388C65.1883 48.2226 70.1846 43.2263 76.35 43.2195H91.65C97.8154 43.2263 102.812 48.2226 102.818 54.388V57.9786H65.1816V54.388ZM64.0013 59.4786H103.999C105.315 59.4786 106.381 60.5454 106.381 61.8612C106.381 63.1771 105.315 64.2439 103.999 64.2439H64.0013C62.6854 64.2439 61.6186 63.1771 61.6186 61.8612C61.6186 60.5454 62.6854 59.4786 64.0013 59.4786ZM97.7859 65.7439L94.7109 67.1505L91.6359 65.7439H97.7859ZM102.864 75.0092C102.861 78.1951 100.279 80.7768 97.0931 80.7805H70.9059C67.72 80.7768 65.1383 78.1951 65.1347 75.0092V72.0092H102.865L102.864 75.0092ZM104.505 70.5092H63.4941V65.743H89.2031L94.7109 69.0555L100.219 65.743H104.505V70.5092Z" fill="#B79C10"/>
</g>
<defs>
<filter id="filter0_d_17_6069" x="0" y="0" width="168" height="168" filterUnits="userSpaceOnUse" color-interpolation-filters="sRGB">
<feFlood flood-opacity="0" result="BackgroundImageFix"/>
<feColorMatrix in="SourceAlpha" type="matrix" values="0 0 0 0 0 0 0 0 0 0 0 0 0 0 0 0 0 0 127 0" result="hardAlpha"/>
<feOffset dy="2"/>
<feGaussianBlur stdDeviation="8"/>
<feColorMatrix type="matrix" values="0 0 0 0 0.235764 0 0 0 0 0.244708 0 0 0 0 0.291667 0 0 0 0.08 0"/>
<feBlend mode="multiply" in2="BackgroundImageFix" result="effect1_dropShadow_17_6069"/>
<feBlend mode="normal" in="SourceGraphic" in2="effect1_dropShadow_17_6069" result="shape"/>
</filter>
</defs>
</svg>
